<svg xmlns="http://www.w3.org/2000/svg" viewBox="12 8 488 488">
<style>path{fill:#030304}@media (prefers-color-scheme:dark){path{fill:#fff}}</style>
<path fill-rule="evenodd" d="M 346 56.935 C 318.029 60.812, 293.475 66.731, 282.500 72.243 C 255.201 85.952, 239.745 107.690, 230.937 144.764 C 229.314 151.597, 226.189 161.782, 223.993 167.399 C 221.797 173.016, 220 178.652, 220 179.922 C 220 181.325, 222.079 184.478, 225.291 187.948 C 238.323 202.024, 235.425 212.636, 209.828 244.571 C 204.066 251.761, 199.023 258.499, 198.621 259.545 C 197.811 261.656, 198.737 262.559, 206 266.745 C 219.032 274.256, 223.111 284.791, 218.096 297.990 C 217.049 300.746, 216.486 303.172, 216.846 303.383 C 217.206 303.593, 222.900 304.992, 229.500 306.492 C 247.961 310.689, 253 314.712, 253 325.253 C 253 332.252, 249.996 335.747, 239.618 340.823 L 230.779 345.147 231.612 348.323 C 232.069 350.071, 232.466 358.700, 232.494 367.500 C 232.546 383.991, 232.879 385.923, 236.323 389.750 C 240.016 393.853, 242.387 393.177, 269.034 380.429 C 279.778 375.289, 297.532 367.667, 308.487 363.492 C 319.443 359.317, 331.046 354.494, 334.274 352.773 C 340.348 349.536, 347.996 341.926, 348.006 339.109 C 348.042 328.673, 357.360 323.589, 363.121 330.862 C 364.848 333.043, 365.117 334.418, 364.673 338.795 C 363.113 354.163, 350.670 365.267, 323.500 375.536 C 318 377.614, 313.364 379.418, 313.198 379.543 C 313.032 379.668, 314.758 382.635, 317.033 386.136 C 324.833 398.133, 336.977 426.399, 342.703 445.883 L 344.500 451.997 410.250 451.999 C 446.413 451.999, 476 451.757, 476 451.460 C 476 451.163, 475.106 449.169, 474.014 447.028 C 471.469 442.040, 462.540 417.517, 456.707 399.500 C 450.581 380.577, 448.168 368.201, 445.448 341.750 L 444.856 336 438.016 336 C 387.322 336, 350.886 285.721, 367.104 238.147 C 384.218 187.944, 445.310 170.971, 485.981 205.121 C 489.796 208.323, 493.138 210.586, 493.408 210.149 C 495.172 207.295, 496.158 185.943, 495.112 173.238 C 491.720 132.015, 480.868 108.641, 455.586 88.104 C 435.578 71.852, 416.066 61.694, 396.500 57.344 C 385.513 54.902, 362.040 54.711, 346 56.935 M 422.500 205.805 C 403.182 211.543, 388.978 225.425, 382.395 245 C 380.102 251.815, 379.828 269.088, 381.894 276.500 C 393.114 316.757, 440.995 332.296, 474.018 306.397 C 500.291 285.792, 502.680 244.972, 478.997 221.326 C 472.290 214.629, 464.918 209.897, 456.432 206.840 C 448.107 203.840, 430.880 203.315, 422.500 205.805 M 457.944 238.282 C 457.088 238.952, 450.166 247.277, 442.563 256.783 L 428.738 274.065 422.455 268.033 C 415.216 261.081, 411.673 260.236, 407.455 264.455 C 402.766 269.143, 403.866 272.107, 414.250 282.758 C 423.806 292.561, 428.045 295.324, 431.957 294.301 C 434.600 293.610, 469.626 250.337, 470.563 246.607 C 471.259 243.833, 468.837 238.535, 466.455 237.621 C 463.872 236.630, 459.634 236.959, 457.944 238.282 M 52.044 271.763 C 50.384 273.108, 48.035 279.931, 42.148 300.513 L 34.429 327.500 27.124 328 C 20.994 328.420, 19.512 328.880, 17.910 330.861 C 15.250 334.148, 15.476 338.566, 18.455 341.545 C 20.777 343.868, 21.530 344, 32.455 344 C 46.304 344, 46.850 343.652, 50.010 332.810 C 51.181 328.790, 53.144 322.125, 54.371 318 L 56.603 310.500 65.370 345.500 C 70.191 364.750, 74.705 381.270, 75.400 382.211 C 77.229 384.687, 81.592 386.107, 84.250 385.090 C 88.197 383.580, 89.626 380.846, 95.004 364.500 C 97.900 355.700, 100.488 348.118, 100.755 347.650 C 101.023 347.183, 103.018 349.503, 105.189 352.807 C 110.065 360.227, 113.573 362.051, 118.473 359.714 C 122.395 357.844, 122.661 357.129, 127.099 336.500 C 128.874 328.250, 130.605 321.170, 130.945 320.768 C 131.286 320.365, 133.541 330.026, 135.957 342.237 C 140.727 366.355, 141.891 369, 147.732 369 C 152.047 369, 154.022 367.065, 161.952 355.073 L 169.273 344 180.887 343.968 C 193.057 343.935, 194.627 343.464, 196.922 339.157 C 198.475 336.242, 197.647 332.681, 194.799 330.028 C 192.804 328.169, 191.312 328, 176.915 328 L 161.207 328 158.354 331.274 C 156.784 333.074, 154.794 335.626, 153.931 336.944 C 152.438 339.224, 152.056 337.812, 146.081 307.920 C 138.651 270.748, 138.401 270.104, 131.424 270.032 C 125.379 269.969, 124.372 272.322, 117.885 301.661 C 114.622 316.422, 111.720 329.144, 111.438 329.930 C 111.099 330.874, 109.768 329.644, 107.523 326.311 C 103.906 320.940, 102.493 320, 98.029 320 C 93.359 320, 91.403 322.804, 87.353 335.305 C 84.616 343.754, 83.316 346.597, 82.781 345.305 C 82.370 344.312, 78.414 328.875, 73.989 311 C 69.565 293.125, 65.445 277.245, 64.835 275.710 C 62.652 270.226, 56.346 268.280, 52.044 271.763"/>
</svg>
